PathFileType	4	(X/Y/Z)	pose_F01_0-91.trc
DataRate	CameraRate	NumFrames	NumMarkers	Units	OrigDataRate	OrigDataStartFrame	OrigNumFrames
30	30	9	21	m	30	34	91
Frame#	Time	CHip			RHip			RKnee			RAnkle			RBigToe			RSmallToe			RHeel			LHip			LKnee			LAnkle			LBigToe			LSmallToe			LHeel			Neck			Nose			RShoulder			RElbow			RWrist			LShoulder			LElbow			LWrist			
		X1	Y1	Z1	X2	Y2	Z2	X3	Y3	Z3	X4	Y4	Z4	X5	Y5	Z5	X6	Y6	Z6	X7	Y7	Z7	X8	Y8	Z8	X9	Y9	Z9	X10	Y10	Z10	X11	Y11	Z11	X12	Y12	Z12	X13	Y13	Z13	X14	Y14	Z14	X15	Y15	Z15	X16	Y16	Z16	X17	Y17	Z17	X18	Y18	Z18	X19	Y19	Z19	X20	Y20	Z20	X21	Y21	Z21	
34	1.1333333333333333	-0.20148674804623634	1.8344112660871872	-0.5417372720377767	-0.20762369041512604	1.831425570284803	-0.4777071168884803	-0.2082890568388915	1.709350535742495	-0.4736431355498459	-0.2096963113288954	1.5812336251280403	-0.45715097641693087	-0.24155113263172678	1.5488674184536593	-0.4192676992025544	-0.23324700683737573	1.5536926082057712	-0.4023198545746174	-0.2061191635623949	1.5728801864599504	-0.4692060754900203	-0.19240803324637615	1.8387440970925022	-0.6076371753604886	-0.20120419257282404	1.7158017955496436	-0.6005716399197415	-0.18784308759089427	1.5823790691105046	-0.6161831841576284	-0.21002967573558895	1.5420339856605287	-0.6063156865660505	-0.1999496953256538	1.5483040642084787	-0.6385260164908705	-0.17708105288475778	1.5716498183931649	-0.613112450726984	-0.21203509780563287	1.9803735446199622	-0.5491984538732239	-0.24731986012692256	1.9995790373558133	-0.5095477623755671	-0.22592037555145073	1.9748044279214445	-0.45216189419006125	-0.22920294324258467	1.907136570969121	-0.3699804543340825	-0.24835149945816856	1.860724105729276	-0.2544702057578191	-0.19549370420991616	1.988150065826979	-0.6460943124558816	-0.17306156774564047	1.9226644246740217	-0.7229742682220834	-0.17405999694252047	1.8698506490511269	-0.7887512344205411
35	1.1666666666666667	-0.20028456738165631	1.8331302342025833	-0.547016696063115	-0.20927831497554497	1.8288571100384794	-0.4838689248682656	-0.2080168713679141	1.7079991871514104	-0.4737855314265612	-0.20937119412253105	1.582325137656205	-0.4577600535365885	-0.24003611525060112	1.5481638952588996	-0.4208440767917972	-0.23192977040641705	1.5546134912018637	-0.4054254890203327	-0.20417703420076208	1.573875498808266	-0.4711342127510686	-0.1897684969168493	1.8363210215038153	-0.6182587723579317	-0.19429250769390652	1.71208547007798	-0.6160781548175848	-0.1891502561063775	1.5727094271431696	-0.6397421555725471	-0.2129280231088785	1.5320970724758312	-0.6322133081948791	-0.20292631155074906	1.5376193584703055	-0.6637571440928053	-0.18421730469174213	1.563251103369526	-0.6392674265713512	-0.2121014585956437	1.9790288767186346	-0.5489180854636426	-0.2501916689076525	1.9981319801697597	-0.5100694449769299	-0.22877905507763766	1.9734692943884102	-0.4528239616277249	-0.23040447533360303	1.9061619575884718	-0.37307642684207126	-0.2512643833212702	1.860761424658434	-0.25592749800218717	-0.19566246841610793	1.9870798546836002	-0.6462718163717452	-0.1738155313558459	1.92293236656956	-0.7262255303614291	-0.17476628508150824	1.8675746950880274	-0.8031490379011144
36	1.2	-0.19903688990702179	1.831969337288394	-0.5524805967048745	-0.20939541900942274	1.8277958584620353	-0.49247601187427414	-0.2072524340461831	1.7067314478919327	-0.4789480693296968	-0.2096408557646776	1.5805428878034773	-0.4573294322947419	-0.23879026552394106	1.5471804758756045	-0.4178026964317096	-0.23061253397545833	1.5555343741979564	-0.40853112346604803	-0.2064587864531198	1.5721527625766722	-0.4685570023585597	-0.18635130041174047	1.8365497169165108	-0.6260945618065571	-0.18831889134568391	1.7088004190146147	-0.6349527032190092	-0.18697061244506408	1.5619675390869212	-0.6704722469261848	-0.21923572181652107	1.5232969051701382	-0.6420778740952152	-0.20913019018553433	1.5281682917681554	-0.6734665864789334	-0.1776671691419704	1.5498065884100183	-0.6743352512280117	-0.21407862041427228	1.9793297747996645	-0.5556939804003093	-0.24930405202381326	1.9957742429672451	-0.5149206636028669	-0.22798170044944358	1.9712934120435521	-0.45788846423575624	-0.22949869589626196	1.9049492573368332	-0.3783756121643332	-0.24895385136449857	1.8623274413435986	-0.2639602286579364	-0.1982388613068494	1.9873401354124836	-0.6555069606774105	-1.32368861248691	1.83821793346808	0.45162089413524503	-0.17100195409494615	1.8690952255753808	-0.8112351964714241
37	1.2333333333333334	-0.19800113934776095	1.8323602771691554	-0.5667888718428772	-0.20935441389580994	1.8279804944500262	-0.5013980907790976	-0.2063659278423928	1.7080442377372547	-0.48465977424236717	-0.20987328457366322	1.5794183396302843	-0.4569289040111859	-0.2407180780631732	1.5470768292716375	-0.4156204083766991	-0.22929529754449965	1.556455257194049	-0.4116367579117633	-0.20442369892803014	1.5717314983849862	-0.47101654335995347	-0.18417362508746288	1.8343513061539671	-0.6366906088414538	-0.18414159233727787	1.7076992297957965	-0.6476068455325841	-0.18442157619335028	1.5592019733490685	-0.6813185118338774	-0.2182573744818653	1.5233605154500558	-0.6390170430684431	-0.20972679127637753	1.5266689350172653	-0.6769563136484962	-0.17588459768977766	1.5469677052416704	-0.6880683062497183	-0.21384985807936824	1.9782687700260082	-0.5640390320351696	-0.2503105079194607	1.9933588486182192	-0.5179046815422141	-0.2270326192463371	1.9717150465616242	-0.4718984882555118	-0.22875541245407957	1.9053352392698963	-0.39289983032308773	-0.24692171925540046	1.8599718118794377	-0.28010894621264193	-0.19779224917313695	1.9862334819445226	-0.6637354690000489	-0.17124819351461273	1.9248221672196624	-0.7491857625859488	-0.16644873420567544	1.870930918147633	-0.8276460105636015
38	1.2666666666666666	-0.19302287475471472	1.8342870776151432	-0.5891198459216164	-0.20400944630986834	1.8311406525113447	-0.5209047013413463	-0.20004582085797115	1.7098201183598243	-0.5007035532945542	-0.21067229480960956	1.5810844745361161	-0.46044794705232284	-0.24176291119789892	1.5468341644758976	-0.4191168637143553	-0.22797806111354094	1.5573761401901416	-0.4147423923574786	-0.20449036952803162	1.575014445569565	-0.4709841909076163	-0.1808313314212242	1.8375017187145106	-0.6570917581445562	-0.17942481681183223	1.708085764037029	-0.6610141224565956	-0.18513185332306234	1.5606190396233106	-0.6801238856270942	-0.22062456301449718	1.5246079566543613	-0.6364492008721767	-0.21251571962539637	1.5268234519286639	-0.6738527429147494	-0.1756449398597425	1.5482227689722017	-0.6837235313616817	-0.21327429772845494	1.976169843324996	-0.5803172769360294	-0.25223141090176426	1.9925204987638305	-0.532350760231216	-0.2240344847038293	1.9682665202729774	-0.4874140756602173	-0.22732774285938398	1.9061094786912023	-0.41307651489096353	-0.24773053830952993	1.8606447476268688	-0.2981791016468114	-0.19539924794644106	1.9853807664873564	-0.6746321543139339	-1.263210180596301	1.8359077654474143	0.3512482096449681	-0.16766001360939942	1.8700367958749673	-0.845207362326641
39	1.3	-0.19308682751271355	1.832307334100537	-0.6063247364158316	-0.20424922806703327	1.8292617821491646	-0.5384106295001104	-0.2021035449874352	1.7117765408386338	-0.5162647041227896	-0.21038847078790762	1.579771347798158	-0.4607444433162818	-0.2406857488527205	1.5471193962600123	-0.41571983577655924	-0.22666082468258225	1.5582970231862343	-0.41784802680319394	-0.20308832483129313	1.5727024403012222	-0.4683522593822823	-0.1773562947512107	1.8367769454466305	-0.6734958745334048	-0.17912017498604962	1.7069501547479013	-0.669507556793984	-0.18492820120427433	1.5594113220903572	-0.680534790492576	-0.22159385317913002	1.5245315107557007	-0.639624428319319	-0.21260365572713688	1.5269990794353876	-0.6739154971311804	-0.17426416058320443	1.547303080736652	-0.6893154690780947	-0.20995937626711686	1.9793221795682419	-0.5975237686587899	-0.25309990249230646	1.9916271705683701	-0.5435423376906332	-0.2239842580677852	1.9703694242779448	-0.5052163069185119	-0.22458748999838474	1.9050686671546535	-0.429364931492613	-0.24574235821815016	1.8571595418989786	-0.3142054757163988	-0.1953179346789035	1.9872878110746772	-0.6949954112857213	-0.16410215580238263	1.9221961258259215	-0.7873238903184904	-0.16794268728603498	1.867745566631802	-0.8566344259194015
40	1.3333333333333333	-0.19134140677909456	1.8340208733182626	-0.6211654334048039	-0.20365426425438007	1.829477668897022	-0.5561160840990355	-0.20212467482919277	1.7104472642581463	-0.5248965802868941	-0.21035471451251592	1.5796265909063798	-0.46083158915986683	-0.238753833007219	1.5474009771094692	-0.417817955434836	-0.22534358825162354	1.559217906182327	-0.42095366124890926	-0.20412774504514977	1.5729815441667934	-0.4716722815915526	-0.1765123193054938	1.835827016391725	-0.6907656457925453	-0.18058260849076704	1.7058571504376605	-0.6844380550267135	-0.18382617593694645	1.5606863215501545	-0.685705978336787	-0.2184635892090763	1.5247427261495186	-0.6387300500609616	-0.2100730975254144	1.5281316303415933	-0.6766872002938568	-0.17401867885043357	1.5462955810397991	-0.6894018623201972	-0.20727191778383636	1.9786790564070993	-0.6165385267762752	-0.24889173071843212	1.99464727096923	-0.5569247616071448	-0.2208509186045627	1.9693218663226224	-0.5213130075867114	-0.22384033546729784	1.9047287912610718	-0.4523601460319036	-0.24582809480920145	1.8566610992601469	-0.3374038550751138	-0.19104951017979815	1.9887998349659843	-0.7108294696845592	-0.16172177854154735	1.924077177920358	-0.8014239222549006	-0.928004494193937	1.795950584498313	-0.1294704338640413
41	1.3666666666666667	-0.18868999647089318	1.8306161628055582	-0.6402072119218614	-0.20340836389166725	1.8287919944593656	-0.5734204061799573	-0.2033166741772528	1.70911923919638	-0.5281850915949169	-0.2105286230021096	1.5805111507168803	-0.4607012354988342	-0.23982399873256166	1.5499994770258165	-0.4215945213803866	-0.22402635182066483	1.5601387891784195	-0.4240592956946246	-0.20435357540371496	1.5741452235154396	-0.47138589138973525	-0.17475808859505923	1.8337127359774246	-0.7047903168605175	-0.17928204677582302	1.7060404931448685	-0.6901052109626418	-0.18137942719708186	1.5626097923560416	-0.6884314392528277	-0.21960257443611475	1.5261197784175815	-0.64161009060632	-0.2106523094048385	1.528757245655117	-0.6758834266138999	-0.17352519789166876	1.5488549167993488	-0.6859485670959451	-0.20554603696212598	1.9815747475965477	-0.6310224943520812	-0.24644203286179792	1.9978886739952824	-0.5766416340369066	-0.22048780709183405	1.9724817486511463	-0.5389470211145478	-0.2197067262134703	1.9049054245274608	-0.46569088018114696	-0.24447697902453946	1.8532578783499298	-0.356950840907728	-0.18756118106278527	1.9904926254344166	-0.7301981030982665	-0.15782321526516688	1.9260846101507745	-0.8209607627602461	-0.913558133202402	1.7992680185017267	-0.15260249806165785
42	1.4	-0.18883797534008068	1.834781242588413	-0.6529424698891331	-0.20083508980175116	1.8329797741978076	-0.5852507357190366	-0.203810086262437	1.709374160987346	-0.5406687039298295	-0.20925370165738233	1.5815151608800009	-0.46662060899494545	-0.23578302512576388	1.5512446140502105	-0.4305870855890301	-0.22270911538970614	1.5610596721745122	-0.42716493014033985	-0.20415733858578253	1.5758383337184916	-0.47205385797653915	-0.1717989346154562	1.8367032504802114	-0.7162472602039125	-0.17306135945436396	1.706346130373491	-0.7007411273167583	-0.18185390210553792	1.5627570276101008	-0.6878636248989554	-0.2171332478386939	1.5276172149633722	-0.6444127924921909	-0.20796261300521712	1.5288651854705315	-0.6789694264769661	-0.17454236873570697	1.5500206481452925	-0.6890081106766444	-0.20059912283663175	1.982366575407213	-0.6525024305368298	-0.2449147358980037	2.003354484344771	-0.5912348109733526	-0.2183403929980836	1.9742301905945703	-0.5504805741167221	-0.2230369582402717	1.9053765588657028	-0.4848518550846104	-0.24719673419595056	1.852592569294594	-0.3812024991222849	-0.1810624296028247	1.993691034343333	-0.7489149208903236	-0.1508014704263068	1.9298093213981606	-0.8287381895663175	-0.16407300853918044	1.88415528159957	-0.8807522266618363
